{"title":"Assassination 2016 DVDRIP X264 AC3 5.1-ZEUS[TG]","uid":15776648,"size":1262487409,"categoryP":"video","categoryS":"movies","magnet":"?xt=urn:btih:0e0b3a69838159651b3be62cba61d266838cf722&amp;dn=Assassination+2016+DVDRIP+X264+AC3+5.1-ZEUS%5BTG%5D&amp;tr=udp%3A%2F%2Ftracker.leechers-paradise.org%3A6969&amp;tr=udp%3A%2F%2Fzer0day.ch%3A1337&amp;tr=udp%3A%2F%2Fopen.demonii.com%3A1337&amp;tr=udp%3A%2F%2Ftracker.coppersurfer.tk%3A6969&amp;tr=udp%3A%2F%2Fexodus.desync.com%3A6969","seeders":8,"leechers":2,"uploader":"TGroup","files":3,"time":1473241652,"description":"Format: Matroska\r\nFormat version: Version 4 / Version 2\r\nFile size: 1.13 GiB\r\nDuration: 1h 16mn\r\nOverall bit rate: 2 099 Kbps\r\n\r\nVideo\r\nID: 1\r\nFormat: AVC\r\nFormat/Info: Advanced Video Codec\r\nFormat profile:   \r\nFormat settings, CABAC: Yes\r\nFormat settings, ReFrames: 4 frames\r\nCodec ID: V_MPEG4/ISO/AVC\r\nDuration: 1h 16mn\r\nBit rate: 1 650 Kbps\r\nWidth: 720 pixels\r\nHeight: 288 pixels\r\nDisplay aspect ratio: 2.500\r\nFrame rate mode: Constant\r\nFrame rate: 25.000 fps\r\nColor space: YUV\r\nChroma subsampling: 4:2:0\r\nBit depth: 8 bits\r\nScan type: Progressive\r\nBits/(Pixel*Frame): 0.318\r\nStream size: 907 MiB (79%)\r\nDefault: Yes\r\nForced: No\r\n\r\nAudio\r\nID: 2\r\nFormat: AC-3\r\nFormat/Info: Audio Coding 3\r\nMode extension: CM (complete main)\r\nFormat settings, Endianness: Big\r\nCodec ID: A_AC3\r\nDuration: 1h 16mn\r\nBit rate mode: Constant\r\nBit rate: 448 Kbps\r\nChannel(s): 6 channels\r\nChannel positions: Front: L C R, Side: L R, LFE\r\nSampling rate: 48.0 KHz\r\nFrame rate: 31.250 fps (1536 spf)\r\nCompression mode: Lossy\r\nDelay relative to video: 500ms\r\nStream size: 246 MiB (21%)\r\nLanguage: English\r\nDefault: Yes\r\nForced: No\r\n\r\nIMDB:http://www.imdb.com/title/tt4177822/\r\n\r\nsource &gt;&gt;&gt;&gt;&gt;&gt;PAL Retail\r\nProof.............http://lookpic.com/O/i2/1713/9bBpiCC2.png\r\n                http://lookpic.com/O/i2/1485/xztT3BW3.png\r\n\r\n|Note|: Resize, mod16 ...hence anamorphic resolution, script added etc.\r\n\r\nAlso known as Decommissioned (2016) US tilte\r\n\r\nUK release as above etc\r\n\r\nsample provided","torrent":{"xt":"urn:btih:0e0b3a69838159651b3be62cba61d266838cf722","amp;dn":"Assassination+2016+DVDRIP+X264+AC3+5.1-ZEUS%5BTG%5D","amp;tr":["udp%3A%2F%2Ftracker.leechers-paradise.org%3A6969","udp%3A%2F%2Fzer0day.ch%3A1337","udp%3A%2F%2Fopen.demonii.com%3A1337","udp%3A%2F%2Ftracker.coppersurfer.tk%3A6969","udp%3A%2F%2Fexodus.desync.com%3A6969"],"infoHash":"0e0b3a69838159651b3be62cba61d266838cf722","infoHashBuffer":{"type":"Buffer","data":[14,11,58,105,131,129,89,101,27,59,230,44,186,97,210,102,131,140,247,34]},"announce":[],"urlList":[]}}